<svg width="50" height="50" viewBox="0 0 71 72" fill="none" xmlns="http://www.w3.org/2000/svg">
<g clip-path="url(#clip0_402_545)">
<path d="M0.25 35.9972C0.25 51.113 9.79053 63.9993 23.1778 68.9666L26.235 35.997L23.1778 3.02762C9.79053 7.99509 0.25 20.8812 0.25 35.9972Z" fill="#6DA544"/>
<path d="M70.5625 35.9972C70.5625 16.581 54.8223 0.840912 35.4062 0.840912C31.1059 0.840912 26.9864 1.61449 23.1777 3.0276V68.9667C26.9864 70.38 31.1059 71.1534 35.4062 71.1534C54.8223 71.1534 70.5625 55.4133 70.5625 35.9972Z" fill="#D80027"/>
<path d="M23.1781 48.2253C29.9316 48.2253 35.4063 42.7506 35.4063 35.9971C35.4063 29.2437 29.9316 23.7689 23.1781 23.7689C16.4247 23.7689 10.95 29.2437 10.95 35.9971C10.95 42.7506 16.4247 48.2253 23.1781 48.2253Z" fill="#FFDA44"/>
<path d="M16.2996 29.883V37.5256C16.2996 41.3244 19.379 44.404 23.178 44.404C26.9769 44.404 30.0564 41.3246 30.0564 37.5256V29.883H16.2996Z" fill="#D80027"/>
<path d="M23.1779 39.8185C21.9136 39.8185 20.885 38.7899 20.885 37.5256V34.4687H25.4706V37.5258C25.4706 38.7899 24.442 39.8185 23.1779 39.8185Z" fill="#F0F0F0"/>
</g>
<defs>
<clipPath id="clip0_402_545">
<rect width="70.3125" height="70.3125" fill="white" transform="translate(0.25 0.840912)"/>
</clipPath>
</defs>
</svg>
