<svg width="50" height="50" viewBox="0 0 72 72" fill="none" xmlns="http://www.w3.org/2000/svg">
<g clip-path="url(#clip0_402_473)">
<path d="M51.3165 4.32935C46.6945 2.09445 41.5093 0.840912 36.0312 0.840912C30.5531 0.840912 25.3679 2.09445 20.7459 4.32935L17.6888 35.9972L20.7459 67.665C25.3679 69.8999 30.5531 71.1534 36.0312 71.1534C41.5093 71.1534 46.6945 69.8999 51.3165 67.665L54.3736 35.9972L51.3165 4.32935Z" fill="#D80027"/>
<path d="M36.0309 23.7689L39.0659 33.1099H48.8887L40.9423 38.8838L43.9774 48.2253L36.0309 42.4519L28.0843 48.2253L31.12 38.8838L23.1736 33.1099H32.9958L36.0309 23.7689Z" fill="#FFDA44"/>
<path d="M20.746 4.33057C8.98648 10.0168 0.875 22.0591 0.875 35.9971C0.875 49.9352 8.98648 61.9775 20.746 67.6637V4.33057Z" fill="#496E2D"/>
<path d="M51.3165 4.33057V67.6637C63.076 61.9775 71.1875 49.9351 71.1875 35.9971C71.1875 22.0592 63.076 10.0168 51.3165 4.33057Z" fill="#FFDA44"/>
</g>
<defs>
<clipPath id="clip0_402_473">
<rect width="70.3125" height="70.3125" fill="white" transform="translate(0.875 0.840912)"/>
</clipPath>
</defs>
</svg>
