<svg width="50" height="50" viewBox="0 0 71 72" fill="none" xmlns="http://www.w3.org/2000/svg">
<g clip-path="url(#clip0_402_545)">
<path d="M35.4062 71.1534C54.8225 71.1534 70.5625 55.4134 70.5625 35.9972C70.5625 16.5809 54.8225 0.840912 35.4062 0.840912C15.99 0.840912 0.25 16.5809 0.25 35.9972C0.25 55.4134 15.99 71.1534 35.4062 71.1534Z" fill="#F0F0F0"/>
<path d="M35.4062 26.8259H69.3514C68.4699 23.5556 67.1301 20.4738 65.4025 17.6547H35.4062V26.8259Z" fill="#338AF3"/>
<path d="M13.522 63.5108H57.2906C60.499 60.9554 63.2506 57.8515 65.4025 54.3395H5.41016C7.56224 57.8513 10.3138 60.9554 13.522 63.5108V63.5108Z" fill="#338AF3"/>
<path d="M35.4062 0.840912V8.48355H57.2906C51.2852 3.70065 43.6802 0.840912 35.4062 0.840912V0.840912Z" fill="#338AF3"/>
<path d="M35.4062 26.8259H69.3514C68.4699 23.5556 67.1301 20.4738 65.4025 17.6547H35.4062V26.8259Z" fill="#338AF3"/>
<path d="M0.25 35.9971C0.25 39.1704 0.672974 42.2441 1.46111 45.1684H69.3515C70.1395 42.2441 70.5625 39.1704 70.5625 35.9971H0.25Z" fill="#338AF3"/>
<path d="M30.8209 21.4157L26.5272 23.4354L28.8136 27.5937L24.1512 26.7019L23.5604 31.4116L20.3132 27.9476L17.0656 31.4116L16.4749 26.7019L11.8126 27.5934L14.0989 23.4352L9.80542 21.4157L14.099 19.3963L11.8126 15.2379L16.4748 16.1297L17.0657 11.42L20.3132 14.884L23.5606 11.42L24.1512 16.1297L28.8137 15.2379L26.5273 19.3964L30.8209 21.4157Z" fill="#FFDA44"/>
</g>
<defs>
<clipPath id="clip0_402_545">
<rect width="70.3125" height="70.3125" fill="white" transform="translate(0.25 0.840912)"/>
</clipPath>
</defs>
</svg>
